<svg width="640" height="640" fill="none" xmlns="http://www.w3.org/2000/svg">
  <path d="M320 400.942c147.276 0 266.667-28.088 266.667-62.738 0-34.649-119.391-62.737-266.667-62.737-147.276 0-266.667 28.088-266.667 62.737 0 34.65 119.391 62.738 266.667 62.738z" fill="#1E6262"/>
  <path d="M467.129 502.684H182.684c-44.195 0-84.87 25.654-102.435 61.316-6.542-7.378-16.124-11.004-26.916-11.004-19.555 0-35.555 16.622-35.555 35.52V640h551.111v-34.329c0-56.871-42.862-102.987-101.76-102.987z" fill="#468E61"/>
  <path d="M319.68 241.013c-46.4 0-100.515 56.854-162.044 69.067 2.542 26.649 10.613 46.56 14.258 73.369 5.991 44.035 30.755 58.133 50.542 64.018 28.48 37.617 58.755 36.017 109.582 36.017 97.476 0 144.711-64.16 150.347-173.28-61.796-12.302-116.125-69.191-162.685-69.191z" fill="#701446"/>
  <path d="M248.889 444.444v57.494c0 .071.195.124.267.195 2.346 4.214 66.435 119.805 70.915 119.805 4.498 0 68.516-115.591 70.845-119.805.071-.071.177-.124.177-.195v-57.494H248.889z" fill="#F7DECE"/>
  <path d="M248.889 490.631c19.822 22.382 44.391 28.445 71.111 28.445 26.702 0 51.271-6.081 71.111-28.445v-56.889H248.889v56.889z" fill="#EEC2AD"/>
  <path d="M432.267 309.084c-9.6-13.297-21.902-24-48.853-27.804 10.115 4.64 19.804 20.64 21.066 29.476 1.262 8.853 2.525 16-5.475 7.164-32.054-35.431-66.969-21.476-101.583-43.129-24.16-15.129-31.52-31.84-31.52-31.84s-2.951 22.329-39.591 45.067c-10.631 6.595-23.288 21.28-30.328 42.969-5.049 15.591-3.485 29.493-3.485 53.244 0 69.333 57.138 127.627 127.627 127.627s127.626-58.809 127.626-127.627c-.017-43.129-4.533-59.982-15.484-75.147z" fill="#F7DECE"/>
  <path d="M334.187 419.68h-28.356a7.09 7.09 0 01-7.093-7.093 7.09 7.09 0 017.093-7.094h28.356a7.09 7.09 0 017.093 7.094c-.018 3.929-3.182 7.093-7.093 7.093z" fill="#C1694F"/>
  <path d="M458.044 269.458C436.213 221.689 334.098 0 320 0c-14.098 0-116.213 221.689-138.045 269.458-85.688 15.004-128.622 43.342-128.622 68.32C160 302.222 248.89 294.347 320 294.347c71.111 0 160 7.875 266.667 43.431 0-24.978-42.934-53.316-128.623-68.32z" fill="#63B585"/>
  <path d="M269.5 225.5c-2.5 7.5-35 16.5-40 25.5s1 24.5 6.5 13.5 31-21 39-29 57.5-2.5 62.5-11.5 27.5-9 28-17.5 0-16-5.5-7.5-21 2.5-27.5 12.5-60.5 6.5-63 14z" fill="#7C533E"/>
  <path d="M284.331 133.824c-.393 1.236.52 20.385 9.889 30.676 4.766 4.852 19.28 9.5 19.28 9.5 13.247 3.317 21 3.461 26.5 6.5s13.908 11.547 13.908 11.547l10.027 19.356c.392-1.236-.658-22.612-10.027-32.903-4.766-4.852-5.908-9.5-16.408-10s-22.539-4.167-34-10.5c-4.734-2.616-9.28-5.085-9.28-5.085l-9.889-19.091zM302.5 54.408c-12 5.408-15.5 20.5-15.5 20.5l6 4.5s2.5-12 14-16.908c11.5-4.908 22.5-14.092 28-15.592s12.629-3.327 14-1.5c1.371 1.828 5.5 10.092 8 13.592 0 0-3-19.592-6.5-22.092S339 34.5 335 35.408c-4 .908-20.5 13.592-32.5 19z" fill="#7C533E"/>
  <path d="M244.588 238.201c13.756-4.468 16.477-10.43 13.737-21.031-3.121 1.01-6.9-.003-7.447-1.697-.551-1.682 1.904-4.73 5.025-5.746-4.009-10.184-9.716-13.403-23.473-8.939-5.264 1.711-10.613 4.891-15.258 8.637 2.124-5.575 3.494-11.646 3.494-17.182 0-14.462-4.828-18.896-15.756-19.562 0 3.278-2.137 6.556-3.91 6.556-1.774 0-3.914-3.278-3.914-6.556-10.928.666-15.753 5.1-15.753 19.562 0 5.536 1.367 11.607 3.494 17.179-4.641-3.743-9.994-6.92-15.258-8.631-13.757-4.471-19.463-1.248-23.475 8.939 3.117 1.016 5.575 4.058 5.028 5.746-.548 1.688-4.327 2.707-7.444 1.698-2.744 10.597-.016 16.559 13.734 21.027 5.264 1.707 11.462 2.284 17.418 1.983-4.995 3.258-9.669 7.365-12.924 11.842-8.503 11.702-7.202 18.126 1.249 25.088 1.927-2.651 5.582-4.048 7.021-3.005 1.435 1.039 1.239 4.952-.689 7.604 9.23 5.884 15.743 5.13 24.243-6.565 3.254-4.478 5.713-10.197 7.27-15.953 1.557 5.759 4.018 11.475 7.27 15.953 8.502 11.701 15.012 12.449 24.246 6.565-1.924-2.655-2.128-6.562-.689-7.608 1.433-1.039 5.091.351 7.021 3.006 8.447-6.959 9.745-13.383 1.249-25.085-3.255-4.477-7.932-8.584-12.924-11.842 5.952.301 12.147-.276 17.415-1.983zM201 236.66c-.531-.957-1.157-1.763-1.928-2.324-.767-.56-1.73-.905-2.805-1.118.747-.799 1.321-1.645 1.616-2.55.295-.901.327-1.924.193-3.012.99.462 1.973.747 2.924.747.95 0 1.934-.285 2.93-.75-.134 1.088-.102 2.111.193 3.012.295.905.869 1.75 1.613 2.55-1.072.213-2.035.557-2.802 1.118-.774.564-1.403 1.37-1.934 2.327z" fill="#F4ABBA"/>
  <path d="M197.05 231.245a3.274 3.274 0 01-3.91 2.491l-19.201-4.267a3.277 3.277 0 011.422-6.399l19.198 4.268a3.273 3.273 0 012.491 3.907zm3.199.715a3.277 3.277 0 013.911-2.491l19.198 4.267a3.279 3.279 0 012.491 3.911 3.281 3.281 0 01-3.911 2.488l-19.198-4.268a3.272 3.272 0 01-2.491-3.907z" fill="#fff"/>
  <path d="M200.25 231.96a3.276 3.276 0 01-4.524-1.01l-10.557-16.589a3.273 3.273 0 011.006-4.523 3.274 3.274 0 014.523 1.006l10.561 16.593a3.281 3.281 0 01-1.009 4.523zm2.612 4.104a3.275 3.275 0 014.523 1.006l10.565 16.592a3.28 3.28 0 01-5.537 3.52l-10.557-16.592a3.286 3.286 0 011.006-4.526z" fill="#fff"/>
  <path d="M200.961 228.761a3.277 3.277 0 01-2.488-3.911l4.267-19.198a3.272 3.272 0 013.908-2.487 3.273 3.273 0 012.487 3.91l-4.264 19.198a3.279 3.279 0 01-3.91 2.488zm-.712 3.199a3.271 3.271 0 012.488 3.907l-4.261 19.198a3.28 3.28 0 01-3.914 2.491 3.288 3.288 0 01-2.491-3.91l4.271-19.198a3.272 3.272 0 013.907-2.488z" fill="#fff"/>
  <path d="M200.249 231.956a3.275 3.275 0 011.007-4.523l16.592-10.558a3.274 3.274 0 014.523 1.007 3.274 3.274 0 01-1.006 4.523l-16.592 10.558a3.272 3.272 0 01-4.524-1.007z" fill="#fff"/>
  <path d="M200.249 231.957a3.28 3.28 0 01-1.006 4.526l-16.592 10.561a3.279 3.279 0 01-3.52-5.533l16.592-10.561a3.282 3.282 0 014.526 1.007z" fill="#fff"/>
  <path d="M214.15 253.8a6.566 6.566 0 019.054 2.012 6.561 6.561 0 01-2.013 9.054 6.56 6.56 0 01-9.053-2.013 6.562 6.562 0 012.012-9.053zm-24.458-38.432a6.555 6.555 0 11-7.038-11.059 6.557 6.557 0 019.05 2.009 6.556 6.556 0 01-2.012 9.05zm6.293 35.787a6.572 6.572 0 014.982 7.827 6.561 6.561 0 01-7.824 4.979 6.559 6.559 0 012.842-12.806zm9.955-44.791a6.553 6.553 0 01-4.976-7.821 6.558 6.558 0 017.821-4.979 6.558 6.558 0 014.979 7.821 6.562 6.562 0 01-7.824 4.979zm-19.71 34.515a6.568 6.568 0 01-2.012 9.056 6.56 6.56 0 01-7.044-11.066 6.568 6.568 0 019.056 2.01zm30.611-19.48a6.555 6.555 0 1111.063-7.037 6.56 6.56 0 01-2.009 9.049 6.559 6.559 0 01-9.054-2.012zm2.606 14.829a6.563 6.563 0 017.824-4.983 6.562 6.562 0 014.979 7.824 6.557 6.557 0 01-7.824 4.976c-3.537-.78-5.762-4.284-4.979-7.817zm-41.595-9.247a6.556 6.556 0 01-7.821 4.979 6.557 6.557 0 012.842-12.803 6.561 6.561 0 014.979 7.824z" fill="#EA596E"/>
  <path d="M201 244.792c7.241 0 13.111-5.87 13.111-13.111 0-7.241-5.87-13.111-13.111-13.111-7.241 0-13.111 5.87-13.111 13.111 0 7.241 5.87 13.111 13.111 13.111z" fill="#FFCC4D"/>
  <g clip-path="url(#clip0)">
    <path d="M453.789 229.434c1.157-2.613 3.245-7.535 2.174-13.93-1.028-6.041-5.845-14.999-11.852-15.285 3.877-3.975 5.221-12.003 4.583-17.189-.811-6.595-6.45-16.989-18.573-20.304-5.475-1.497-14.721-.308-18.637 4.188-1.198-5.851-9.467-10.821-15.179-12.141-6.446-1.49-11.455.446-14.092 1.527l.016-.01-.134.053-.124.053c-2.639 1.098-7.549 3.223-11.095 8.807-3.646 5.767-6.32 17.515-.212 21.397.4.255.868.556 1.375.887-6.54-3.008-15.347 5.129-18.515 11.142-3.102 5.89-2.461 11.216-2.07 14.04l-.003-.016c.008.04.019.095.018.138.004.041.023.094.022.139.413 2.821 1.268 8.104 5.888 12.903 4.549 4.716 14.695 9.878 20.288 6.014-4.014 5.927 2.632 15.863 8.145 19.978 5.44 4.067 10.969 4.356 13.907 4.458l-.018.001c.048-.004.1-.002.145 0l.145.003c2.939.085 8.459.149 14.149-3.558 3.908-2.558 8.499-7.751 9.931-12.753l.357.635c3.375 6.089 14.662 3.543 20.321-.027 5.488-3.452 9.023-11.116 9.04-11.15z" fill="#F4ABBA"/>
    <path d="M437.067 212.977c-3.59-5.391-13.104-8.27-19.58-8.953a12.283 12.283 0 00-1.232-4.89c6.249-2.513 16.576-7.84 13.336-15.8-3.45-8.473-13.652.66-18.177 10.621-.187-.107-.343-.247-.537-.347-2.871-1.473-6.047-1.673-8.926-.862-.655-8.441-4.969-17.657-11.512-14.423-7.07 3.497-1.325 10.543 5.821 17.938-.729.796-1.4 1.659-1.916 2.665-.66 1.284-1.021 2.633-1.199 3.986-8.217-1.612-21.499-1.36-18.961 7.745 2.658 9.537 14.389 2.979 20.203-.497 1.132 2.197 2.912 4.082 5.279 5.297.633.325 1.284.556 1.94.761-7.251 13.371-6.158 22.005 2.851 22.436 7.973.38 7.276-15.127 5.343-22.761a12.196 12.196 0 003.848-2.442c16.065 17.301 27.597 5.796 23.419-.474z" fill="#EA596E"/>
    <path d="M403.695 209.791c-1.912-.982-1.069-2.549-.536-4.725 1.73-7.06 2.414-21.214.288-32.467a4.751 4.751 0 019.335-1.765c2.336 12.361-1.511 25.578-3.851 35.116-.627 2.547-1.647 4.853-4.194 4.226a4.718 4.718 0 01-1.042-.385z" fill="#BE1931"/>
    <path d="M416.159 173.005c.414 2.647-2.435 5.292-6.364 5.909l-1.84.291c-3.931.613-7.455-1.032-7.868-3.679l-2.313-14.773c-.414-2.647 2.435-5.293 6.363-5.907l1.84-.29c3.929-.615 7.452 1.03 7.866 3.677l2.316 14.772z" fill="#FFCC4D"/>
  </g>
  <g clip-path="url(#clip1)">
    <path d="M294.107 157.479c2.342-1.637 6.676-4.768 9.069-10.794 2.247-5.702 2.76-15.859-2.232-19.213 5.375-1.395 10.679-7.569 12.817-12.336 2.719-6.064 3.273-17.876-5.386-26.986-3.91-4.114-12.436-7.882-18.114-6.061 2.003-5.626-2.501-14.159-6.706-18.243-4.745-4.612-10.032-5.547-12.848-5.987h.018l-.141-.025-.134-.017c-2.826-.426-8.127-1.149-14.051 1.794-6.105 3.047-14.472 11.716-11.254 18.2.21.424.455.924.717 1.47-4.04-5.958-15.787-3.553-21.609-.048-5.702 3.435-7.91 8.324-9.037 10.942l.006-.014c-.014.038-.033.09-.056.127-.018.037-.029.092-.054.13-1.106 2.628-3.108 7.591-1.639 14.088 1.452 6.39 7.463 16.058 14.248 15.645-6.502 2.995-5.956 14.936-3.368 21.31 2.551 6.295 7.132 9.404 9.593 11.011l-.017-.008c.044.022.087.05.125.075l.122.078c2.471 1.593 7.162 4.505 13.949 4.277 4.667-.166 11.283-2.234 15.097-5.773l-.023.728c-.263 6.956 10.713 10.619 17.403 10.493 6.481-.114 13.473-4.843 13.505-4.863z" fill="#F4ABBA"/>
    <path d="M288.314 134.744c-.282-6.471-6.932-13.858-12.121-17.794a12.278 12.278 0 001.477-4.821c6.647 1.083 18.241 1.868 19.587-6.619 1.433-9.036-12.022-6.5-21.049-.318-.105-.189-.166-.389-.281-.575-1.694-2.747-4.308-4.561-7.191-5.357 3.808-7.561 4.885-17.68-2.387-18.299-7.86-.666-6.59 8.335-4.302 18.361-1.036.305-2.056.696-3.018 1.289-1.229.758-2.237 1.725-3.09 2.791-6.197-5.632-17.692-12.29-20.232-3.185-2.661 9.536 10.771 9.995 17.544 10.029-.168 2.466.38 5.001 1.776 7.265.374.606.812 1.14 1.267 1.656-13.124 7.688-16.657 15.642-9.171 20.672 6.626 4.452 14.054-9.178 16.351-16.711 1.501.25 3.037.225 4.556-.098 4.793 23.117 20.615 19.241 20.284 11.714z" fill="#EA596E"/>
    <path d="M261.408 114.748c-1.129-1.83.404-2.735 1.986-4.321 5.134-5.145 13.043-16.903 17.048-27.633a4.749 4.749 0 016.111-2.79 4.751 4.751 0 012.79 6.11c-4.398 11.788-14.53 21.106-21.468 28.057-1.855 1.854-3.921 3.3-5.776 1.445a4.697 4.697 0 01-.691-.868z" fill="#BE1931"/>
    <path d="M291.109 89.72c-1.015 2.48-4.822 3.269-8.504 1.763l-1.725-.703c-3.681-1.51-5.844-4.74-4.828-7.22l5.666-13.838c1.016-2.48 4.823-3.268 8.502-1.76l1.724.703c3.68 1.507 5.843 4.737 4.828 7.217l-5.663 13.839z" fill="#FFCC4D"/>
  </g>
  <g clip-path="url(#clip2)">
    <path d="M89.25 640h-35.5V320.861L36 235h71l-17.75 85.861V640z" fill="#D99E82"/>
    <path d="M53.751 544c-.917.917-6.086 20.552-2.5 34 2 6.5 8.208 12.272 8.208 12.272L82 612.706c2.323 2.829 1.252 1.294 4.252 5.794s2.5 9.201 2.5 9.201V649.5c.917-.917 6.086-21.052 2.5-34.5-2-6.5-8.5-12-8.5-12-9.446-8.916-19.237-17.605-26.5-28.5-3-4.5-2.5-9-2.5-9V544zM53.751 438c-.917.917-6.086 20.552-2.5 34 2 6.5 8.208 12.272 8.208 12.272L82 506.706c2.323 2.829 1.252 1.294 4.252 5.794s2.5 9.201 2.5 9.201V543.5c.917-.917 6.086-21.052 2.5-34.5-2-6.5-8.5-12-8.5-12-9.446-8.916-19.237-17.605-26.5-28.5-3-4.5-2.5-9-2.5-9V438zM53.751 332c-.917.917-6.086 20.552-2.5 34 2 6.5 8.208 12.272 8.208 12.272L82 400.706c2.323 2.829 1.252 1.294 4.252 5.794s2.5 9.201 2.5 9.201V437.5c.917-.917 6.086-21.052 2.5-34.5-2-6.5-8.5-12-8.5-12-9.446-8.916-19.237-17.605-26.5-28.5-3-4.5-2.5-9-2.5-9V332z" fill="#77B255"/>
    <g clip-path="url(#clip3)">
      <path d="M91.332 60.608c6.19-24.779-17.135-55.75-17.135-49.557 0-6.194-24.778 24.778-18.58 49.557-6.194-6.194-37.166-24.779-24.774 6.193 12.387 30.977 18.58 30.977 24.774 37.17 6.193 6.194 18.585-6.198 18.585-6.198s11.296 12.392 17.494 6.194c6.193-6.194 11.301-6.194 23.688-37.161 12.387-30.977-17.858-12.392-24.052-6.198z" fill="#77B255"/>
      <path d="M117.557 162.818c0 66.71-30.972 145.565-46.46 145.565-15.489 0-46.456-78.86-46.46-145.565 0-66.71 17.38-83.626 46.46-83.63 29.079.004 46.46 16.92 46.46 83.63z" fill="#F4900C"/>
      <path d="M75.59 125.644c-8.515 0-24.331-.066-47.296-6.194-1.144 5.454-2.028 11.586-2.633 18.471 28.103 3.548 58.86-12.282 49.93-12.277zm2.571 68.142c-9.119 0-26.63-.088-52.347-7.626a302.724 302.724 0 002.585 19.929c28.05 3.461 58.663-12.303 49.762-12.303zm39.203-42.277c-24.48 6.889-41.174 6.92-50.035 6.925-8.944-.009 21.932 15.869 50.07 12.251.092-2.633.083-15.563-.035-19.176zm-12.523 94.203a336.886 336.886 0 004.897-18.887c-22.68 5.992-38.335 6.071-46.789 6.071-8.081-.005 16.351 12.969 41.892 12.816z" fill="#D67503"/>
    </g>
    <g clip-path="url(#clip4)">
      <path d="M134.006 392.119c10-11.889 23.053-38.338-5.727-64.555-1.708 16.372-21.954 20.974-31.951 32.866-10.002 11.889-11.159 27.374.731 37.376 11.89 10 26.945 6.205 36.947-5.687z" fill="#A6D388"/>
      <path d="M133.31 351.908c2.416-13.706-3.625-23.162-4.618-23.997 0 0 4.543 7.947-1.272 22.927-2.829-1.853-7.087-7.877-7.087-7.877-.652 1.274.278 8.958 4.348 13.908-1.384 2.67-3.085 5.518-5.155 8.535l-2.063-1.672c-8.012-6.467-6.96-14.694-6.96-14.694-1.22 1.511-6.466 12.891 3.339 20.82l1.511 1.219a119.09 119.09 0 01-2.489 3.065l-3.695 4.394-2.53-2.125c-7.885-6.634-9.097-17.333-9.097-17.333-1.253 1.487-4.496 15.504 5.149 23.616l1.746 1.471-16.569 19.694c-1.252 1.487-.937 3.808.547 5.056 1.487 1.251 3.825 1.161 5.075-.325l16.566-19.697.14.118c9.648 8.112 23.698 3.186 24.95 1.696 0 0-11.549-.033-19.434-6.668l-.921-.772 6.995-8.316c.114-.135.211-.267.325-.402 10.945 4.396 22.374-4.639 23.207-6.316 0 0-10.049 4.094-18.969.58 2.324-3.562 4.01-6.998 5.182-10.264 6.528-.747 11.951-6.995 12.336-8.431 0 0-6.394 2.559-9.709 2.015l-.848-.225z" fill="#77B255"/>
    </g>
    <g clip-path="url(#clip5)">
      <path d="M17.496 360.119c-10-11.889-23.053-38.338 5.728-64.555 1.707 16.372 21.953 20.974 31.95 32.866 10.002 11.889 11.159 27.374-.731 37.376-11.89 10-26.945 6.205-36.947-5.687z" fill="#A6D388"/>
      <path d="M18.192 319.908c-2.416-13.706 3.625-23.162 4.618-23.997 0 0-4.543 7.947 1.272 22.927 2.83-1.853 7.087-7.877 7.087-7.877.652 1.274-.277 8.958-4.348 13.908 1.384 2.67 3.085 5.518 5.155 8.535l2.063-1.672c8.012-6.467 6.96-14.694 6.96-14.694 1.22 1.511 6.466 12.891-3.339 20.82l-1.51 1.219a119.058 119.058 0 002.488 3.065l3.696 4.394 2.529-2.125c7.885-6.634 9.097-17.333 9.097-17.333 1.253 1.487 4.497 15.504-5.149 23.616l-1.745 1.471 16.568 19.694c1.252 1.487.938 3.808-.547 5.056-1.487 1.251-3.825 1.161-5.075-.325l-16.566-19.697-.14.118c-9.647 8.112-23.698 3.186-24.95 1.696 0 0 11.549-.033 19.434-6.668l.922-.772-6.996-8.316c-.114-.135-.21-.267-.324-.402-10.946 4.396-22.375-4.639-23.208-6.316 0 0 10.05 4.094 18.97.58-2.325-3.562-4.01-6.998-5.183-10.264-6.528-.747-11.95-6.995-12.335-8.431 0 0 6.393 2.559 9.709 2.015l.847-.225z" fill="#77B255"/>
    </g>
  </g>
  <path d="M124.445 542.222c0 34.365-23.876 62.223-53.334 62.223-29.458 0-53.333-27.858-53.333-62.223 0-34.364 23.875-44.444 53.333-44.444s53.334 10.08 53.334 44.444z" fill="#F7DECE"/>
  <path d="M263.271 370.044c-7.84 0-14.187-6.346-14.187-14.186v-14.169c0-7.822 6.347-14.187 14.187-14.187 7.822 0 14.187 6.347 14.187 14.187v14.187c0 7.822-6.347 14.168-14.187 14.168zm113.458 0c-7.822 0-14.187-6.346-14.187-14.186v-14.169c0-7.822 6.347-14.187 14.187-14.187 7.822 0 14.187 6.347 14.187 14.187v14.187c-.018 7.822-6.365 14.168-14.187 14.168z" fill="#131F19"/>
  <path d="M319.947 470.489c-41.938 0-54.827-10.738-56.96-12.907-3.911-3.893-3.911-10.222 0-14.115 3.769-3.769 9.813-3.876 13.742-.356.782.569 10.969 7.413 43.218 7.413 33.529 0 43.182-7.395 43.289-7.466 3.893-3.876 10.026-3.698 13.92.231 3.893 3.893 3.68 10.4-.214 14.293-2.186 2.169-15.057 12.907-56.995 12.907z" fill="#4D6A67"/>
  <defs>
    <clipPath id="clip0">
      <path fill="#fff" transform="rotate(27.171 -89.797 851.797)" d="M0 0h114v114H0z"/>
    </clipPath>
    <clipPath id="clip1">
      <path fill="#fff" transform="rotate(58.335 105.473 268.965)" d="M0 0h114v114H0z"/>
    </clipPath>
    <clipPath id="clip2">
      <path fill="#fff" d="M0 0h640v640H0z"/>
    </clipPath>
    <clipPath id="clip3">
      <path fill="#fff" transform="rotate(-45 148.343 180.24)" d="M0 0h223v223H0z"/>
    </clipPath>
    <clipPath id="clip4">
      <path fill="#fff" transform="rotate(-94.934 225.151 172.36)" d="M0 0h79v79H0z"/>
    </clipPath>
    <clipPath id="clip5">
      <path fill="#fff" transform="scale(1 -1) rotate(85.066 246.192 -146.854)" d="M0 0h79v79H0z"/>
    </clipPath>
  </defs>
</svg>
